<?xml version="1.0" encoding="UTF-8" standalone="no"?>
<!DOCTYPE svg PUBLIC "-//W3C//DTD SVG 1.1//EN"
 "http://www.w3.org/Graphics/SVG/1.1/DTD/svg11.dtd">
<!-- Generated by graphviz version 14.1.4 (20260321.0153)
 -->
<!-- Title: provenance Pages: 1 -->
<svg width="1089pt" height="864pt"
 viewBox="0.00 0.00 1089.00 864.00" xmlns="http://www.w3.org/2000/svg" xmlns:xlink="http://www.w3.org/1999/xlink">
<g id="graph0" class="graph" transform="scale(1 1) rotate(0) translate(4 859.75)">
<title>provenance</title>
<polygon fill="white" stroke="none" points="-4,4 -4,-859.75 1085.08,-859.75 1085.08,4 -4,4"/>
<!-- call_list_files_1_fe01b6 -->
<g id="node1" class="node">
<title>call_list_files_1_fe01b6</title>
<polygon fill="#50c878" stroke="black" points="181.75,-119.75 38.25,-119.75 38.25,-62.25 181.75,-62.25 181.75,-119.75"/>
<text xml:space="preserve" text-anchor="middle" x="110" y="-102.45" font-family="Times,serif" font-size="14.00" fill="white">call:list_files_1_fe01b6</text>
<text xml:space="preserve" text-anchor="middle" x="110" y="-85.95" font-family="Times,serif" font-size="14.00" fill="white">list_files</text>
<text xml:space="preserve" text-anchor="middle" x="110" y="-69.45" font-family="Times,serif" font-size="14.00" fill="white">[USER_INPUT]</text>
</g>
<!-- data_result_list_files_05538e -->
<g id="node2" class="node">
<title>data_result_list_files_05538e</title>
<ellipse fill="#f5a623" stroke="black" cx="466.54" cy="-91" rx="133.29" ry="28.99"/>
<text xml:space="preserve" text-anchor="middle" x="466.54" y="-94.2" font-family="Times,serif" font-size="14.00" fill="white">data:result_list_files_05538e</text>
<text xml:space="preserve" text-anchor="middle" x="466.54" y="-77.7" font-family="Times,serif" font-size="14.00" fill="white">[TOOL_OUTPUT_TRUSTED]</text>
</g>
<!-- call_list_files_1_fe01b6&#45;&gt;data_result_list_files_05538e -->
<g id="edge1" class="edge">
<title>call_list_files_1_fe01b6&#45;&gt;data_result_list_files_05538e</title>
<path fill="none" stroke="#333333" d="M181.89,-91C221.93,-91 273.45,-91 321.58,-91"/>
<polygon fill="#333333" stroke="#333333" points="321.56,-94.5 331.56,-91 321.56,-87.5 321.56,-94.5"/>
<text xml:space="preserve" text-anchor="middle" x="276.62" y="-94.2" font-family="Times,serif" font-size="14.00">direct_output</text>
</g>
<!-- field_result_list_files_05538e_path -->
<g id="node3" class="node">
<title>field_result_list_files_05538e_path</title>
<polygon fill="#f5d623" stroke="black" points="879.83,-182 678.58,-141 879.83,-100 1081.08,-141 879.83,-182"/>
<text xml:space="preserve" text-anchor="middle" x="879.83" y="-144.2" font-family="Times,serif" font-size="14.00" fill="white">field:result_list_files_05538e.path</text>
<text xml:space="preserve" text-anchor="middle" x="879.83" y="-127.7" font-family="Times,serif" font-size="14.00" fill="white">[TOOL_OUTPUT_TRUSTED]</text>
</g>
<!-- data_result_list_files_05538e&#45;&gt;field_result_list_files_05538e_path -->
<g id="edge2" class="edge">
<title>data_result_list_files_05538e&#45;&gt;field_result_list_files_05538e_path</title>
<path fill="none" stroke="#333333" d="M583.75,-105.13C632.66,-111.07 689.95,-118.04 740.97,-124.24"/>
<polygon fill="#333333" stroke="#333333" points="740.24,-127.68 750.59,-125.41 741.09,-120.73 740.24,-127.68"/>
<text xml:space="preserve" text-anchor="middle" x="639.2" y="-116.21" font-family="Times,serif" font-size="14.00">field_of</text>
</g>
<!-- field_result_list_files_05538e_files -->
<g id="node4" class="node">
<title>field_result_list_files_05538e_files</title>
<polygon fill="#f5d623" stroke="black" points="879.83,-82 678.58,-41 879.83,0 1081.08,-41 879.83,-82"/>
<text xml:space="preserve" text-anchor="middle" x="879.83" y="-44.2" font-family="Times,serif" font-size="14.00" fill="white">field:result_list_files_05538e.files</text>
<text xml:space="preserve" text-anchor="middle" x="879.83" y="-27.7" font-family="Times,serif" font-size="14.00" fill="white">[TOOL_OUTPUT_TRUSTED]</text>
</g>
<!-- data_result_list_files_05538e&#45;&gt;field_result_list_files_05538e_files -->
<g id="edge3" class="edge">
<title>data_result_list_files_05538e&#45;&gt;field_result_list_files_05538e_files</title>
<path fill="none" stroke="#333333" d="M583.75,-76.87C632.66,-70.93 689.95,-63.96 740.97,-57.76"/>
<polygon fill="#333333" stroke="#333333" points="741.09,-61.27 750.59,-56.59 740.24,-54.32 741.09,-61.27"/>
<text xml:space="preserve" text-anchor="middle" x="639.2" y="-75.15" font-family="Times,serif" font-size="14.00">field_of</text>
</g>
<!-- call_list_files_2_d26a6f -->
<g id="node5" class="node">
<title>call_list_files_2_d26a6f</title>
<polygon fill="#50c878" stroke="black" points="181.75,-319.75 38.25,-319.75 38.25,-262.25 181.75,-262.25 181.75,-319.75"/>
<text xml:space="preserve" text-anchor="middle" x="110" y="-302.45" font-family="Times,serif" font-size="14.00" fill="white">call:list_files_2_d26a6f</text>
<text xml:space="preserve" text-anchor="middle" x="110" y="-285.95" font-family="Times,serif" font-size="14.00" fill="white">list_files</text>
<text xml:space="preserve" text-anchor="middle" x="110" y="-269.45" font-family="Times,serif" font-size="14.00" fill="white">[USER_INPUT]</text>
</g>
<!-- data_result_list_files_51094f -->
<g id="node6" class="node">
<title>data_result_list_files_51094f</title>
<ellipse fill="#f5a623" stroke="black" cx="466.54" cy="-291" rx="133.29" ry="28.99"/>
<text xml:space="preserve" text-anchor="middle" x="466.54" y="-294.2" font-family="Times,serif" font-size="14.00" fill="white">data:result_list_files_51094f</text>
<text xml:space="preserve" text-anchor="middle" x="466.54" y="-277.7" font-family="Times,serif" font-size="14.00" fill="white">[TOOL_OUTPUT_TRUSTED]</text>
</g>
<!-- call_list_files_2_d26a6f&#45;&gt;data_result_list_files_51094f -->
<g id="edge4" class="edge">
<title>call_list_files_2_d26a6f&#45;&gt;data_result_list_files_51094f</title>
<path fill="none" stroke="#333333" d="M181.89,-291C221.93,-291 273.45,-291 321.58,-291"/>
<polygon fill="#333333" stroke="#333333" points="321.56,-294.5 331.56,-291 321.56,-287.5 321.56,-294.5"/>
<text xml:space="preserve" text-anchor="middle" x="276.62" y="-294.2" font-family="Times,serif" font-size="14.00">direct_output</text>
</g>
<!-- field_result_list_files_51094f_path -->
<g id="node7" class="node">
<title>field_result_list_files_51094f_path</title>
<polygon fill="#f5d623" stroke="black" points="879.83,-382 680.08,-341 879.83,-300 1079.58,-341 879.83,-382"/>
<text xml:space="preserve" text-anchor="middle" x="879.83" y="-344.2" font-family="Times,serif" font-size="14.00" fill="white">field:result_list_files_51094f.path</text>
<text xml:space="preserve" text-anchor="middle" x="879.83" y="-327.7" font-family="Times,serif" font-size="14.00" fill="white">[TOOL_OUTPUT_TRUSTED]</text>
</g>
<!-- data_result_list_files_51094f&#45;&gt;field_result_list_files_51094f_path -->
<g id="edge5" class="edge">
<title>data_result_list_files_51094f&#45;&gt;field_result_list_files_51094f_path</title>
<path fill="none" stroke="#333333" d="M583.75,-305.13C632.77,-311.09 690.21,-318.07 741.32,-324.28"/>
<polygon fill="#333333" stroke="#333333" points="740.61,-327.72 750.96,-325.45 741.45,-320.77 740.61,-327.72"/>
<text xml:space="preserve" text-anchor="middle" x="639.2" y="-316.21" font-family="Times,serif" font-size="14.00">field_of</text>
</g>
<!-- field_result_list_files_51094f_files -->
<g id="node8" class="node">
<title>field_result_list_files_51094f_files</title>
<polygon fill="#f5d623" stroke="black" points="879.83,-282 680.08,-241 879.83,-200 1079.58,-241 879.83,-282"/>
<text xml:space="preserve" text-anchor="middle" x="879.83" y="-244.2" font-family="Times,serif" font-size="14.00" fill="white">field:result_list_files_51094f.files</text>
<text xml:space="preserve" text-anchor="middle" x="879.83" y="-227.7" font-family="Times,serif" font-size="14.00" fill="white">[TOOL_OUTPUT_TRUSTED]</text>
</g>
<!-- data_result_list_files_51094f&#45;&gt;field_result_list_files_51094f_files -->
<g id="edge6" class="edge">
<title>data_result_list_files_51094f&#45;&gt;field_result_list_files_51094f_files</title>
<path fill="none" stroke="#333333" d="M583.75,-276.87C632.77,-270.91 690.21,-263.93 741.32,-257.72"/>
<polygon fill="#333333" stroke="#333333" points="741.45,-261.23 750.96,-256.55 740.61,-254.28 741.45,-261.23"/>
<text xml:space="preserve" text-anchor="middle" x="639.2" y="-275.15" font-family="Times,serif" font-size="14.00">field_of</text>
</g>
<!-- call_list_files_3_d24a5e -->
<g id="node9" class="node">
<title>call_list_files_3_d24a5e</title>
<polygon fill="#50c878" stroke="black" points="182.5,-395.75 37.5,-395.75 37.5,-338.25 182.5,-338.25 182.5,-395.75"/>
<text xml:space="preserve" text-anchor="middle" x="110" y="-378.45" font-family="Times,serif" font-size="14.00" fill="white">call:list_files_3_d24a5e</text>
<text xml:space="preserve" text-anchor="middle" x="110" y="-361.95" font-family="Times,serif" font-size="14.00" fill="white">list_files</text>
<text xml:space="preserve" text-anchor="middle" x="110" y="-345.45" font-family="Times,serif" font-size="14.00" fill="white">[USER_INPUT]</text>
</g>
<!-- denied_list_files_denied_3 -->
<g id="node10" class="node">
<title>denied_list_files_denied_3</title>
<polygon fill="#d9534f" stroke="black" stroke-width="2" points="189.25,-471.75 30.75,-471.75 30.75,-414.25 189.25,-414.25 189.25,-471.75"/>
<text xml:space="preserve" text-anchor="middle" x="110" y="-454.45" font-family="Times,serif" font-size="14.00" fill="white">denied:list_files_denied_3</text>
<text xml:space="preserve" text-anchor="middle" x="110" y="-437.95" font-family="Times,serif" font-size="14.00" fill="white">list_files</text>
<text xml:space="preserve" text-anchor="middle" x="110" y="-421.45" font-family="Times,serif" font-size="14.00" fill="white">[TOOL_DESCRIPTION]</text>
</g>
<!-- call_list_files_4_4ea5be -->
<g id="node11" class="node">
<title>call_list_files_4_4ea5be</title>
<polygon fill="#50c878" stroke="black" points="538.66,-469.75 394.41,-469.75 394.41,-412.25 538.66,-412.25 538.66,-469.75"/>
<text xml:space="preserve" text-anchor="middle" x="466.54" y="-452.45" font-family="Times,serif" font-size="14.00" fill="white">call:list_files_4_4ea5be</text>
<text xml:space="preserve" text-anchor="middle" x="466.54" y="-435.95" font-family="Times,serif" font-size="14.00" fill="white">list_files</text>
<text xml:space="preserve" text-anchor="middle" x="466.54" y="-419.45" font-family="Times,serif" font-size="14.00" fill="white">[USER_INPUT]</text>
</g>
<!-- denied_list_files_denied_3&#45;&gt;call_list_files_4_4ea5be -->
<g id="edge7" class="edge">
<title>denied_list_files_denied_3&#45;&gt;call_list_files_4_4ea5be</title>
<path fill="none" stroke="#d9534f" stroke-dasharray="1,5" d="M189.68,-442.56C246.96,-442.23 324.38,-441.8 382.62,-441.47"/>
<polygon fill="#d9534f" stroke="#d9534f" points="382.51,-444.97 392.49,-441.41 382.47,-437.97 382.51,-444.97"/>
<text xml:space="preserve" text-anchor="middle" x="276.62" y="-445.44" font-family="Times,serif" font-size="14.00">counterfactual</text>
</g>
<!-- call_send_email_6_e3e20d -->
<g id="node17" class="node">
<title>call_send_email_6_e3e20d</title>
<polygon fill="#50c878" stroke="black" points="546.91,-549.75 386.16,-549.75 386.16,-492.25 546.91,-492.25 546.91,-549.75"/>
<text xml:space="preserve" text-anchor="middle" x="466.54" y="-532.45" font-family="Times,serif" font-size="14.00" fill="white">call:send_email_6_e3e20d</text>
<text xml:space="preserve" text-anchor="middle" x="466.54" y="-515.95" font-family="Times,serif" font-size="14.00" fill="white">send_email</text>
<text xml:space="preserve" text-anchor="middle" x="466.54" y="-499.45" font-family="Times,serif" font-size="14.00" fill="white">[USER_INPUT]</text>
</g>
<!-- denied_list_files_denied_3&#45;&gt;call_send_email_6_e3e20d -->
<g id="edge10" class="edge">
<title>denied_list_files_denied_3&#45;&gt;call_send_email_6_e3e20d</title>
<path fill="none" stroke="#d9534f" stroke-dasharray="1,5" d="M189.68,-460.31C244.38,-472.34 317.44,-488.42 374.63,-501"/>
<polygon fill="#d9534f" stroke="#d9534f" points="373.85,-504.41 384.37,-503.14 375.36,-497.58 373.85,-504.41"/>
<text xml:space="preserve" text-anchor="middle" x="276.62" y="-489.87" font-family="Times,serif" font-size="14.00">counterfactual</text>
</g>
<!-- denied_list_files_4_4ea5be_denied -->
<g id="node12" class="node">
<title>denied_list_files_4_4ea5be_denied</title>
<polygon fill="#d9534f" stroke="black" stroke-width="2" points="211.75,-703.75 8.25,-703.75 8.25,-646.25 211.75,-646.25 211.75,-703.75"/>
<text xml:space="preserve" text-anchor="middle" x="110" y="-686.45" font-family="Times,serif" font-size="14.00" fill="white">denied:list_files_4_4ea5be_denied</text>
<text xml:space="preserve" text-anchor="middle" x="110" y="-669.95" font-family="Times,serif" font-size="14.00" fill="white">list_files</text>
<text xml:space="preserve" text-anchor="middle" x="110" y="-653.45" font-family="Times,serif" font-size="14.00" fill="white">[TOOL_DESCRIPTION]</text>
</g>
<!-- denied_list_files_denied_4 -->
<g id="node13" class="node">
<title>denied_list_files_denied_4</title>
<polygon fill="#d9534f" stroke="black" stroke-width="2" points="189.25,-627.75 30.75,-627.75 30.75,-570.25 189.25,-570.25 189.25,-627.75"/>
<text xml:space="preserve" text-anchor="middle" x="110" y="-610.45" font-family="Times,serif" font-size="14.00" fill="white">denied:list_files_denied_4</text>
<text xml:space="preserve" text-anchor="middle" x="110" y="-593.95" font-family="Times,serif" font-size="14.00" fill="white">list_files</text>
<text xml:space="preserve" text-anchor="middle" x="110" y="-577.45" font-family="Times,serif" font-size="14.00" fill="white">[TOOL_DESCRIPTION]</text>
</g>
<!-- call_list_files_5_57c2b9 -->
<g id="node14" class="node">
<title>call_list_files_5_57c2b9</title>
<polygon fill="#50c878" stroke="black" points="539.41,-629.75 393.66,-629.75 393.66,-572.25 539.41,-572.25 539.41,-629.75"/>
<text xml:space="preserve" text-anchor="middle" x="466.54" y="-612.45" font-family="Times,serif" font-size="14.00" fill="white">call:list_files_5_57c2b9</text>
<text xml:space="preserve" text-anchor="middle" x="466.54" y="-595.95" font-family="Times,serif" font-size="14.00" fill="white">list_files</text>
<text xml:space="preserve" text-anchor="middle" x="466.54" y="-579.45" font-family="Times,serif" font-size="14.00" fill="white">[USER_INPUT]</text>
</g>
<!-- denied_list_files_denied_4&#45;&gt;call_list_files_5_57c2b9 -->
<g id="edge8" class="edge">
<title>denied_list_files_denied_4&#45;&gt;call_list_files_5_57c2b9</title>
<path fill="none" stroke="#d9534f" stroke-dasharray="1,5" d="M189.68,-599.44C246.77,-599.77 323.86,-600.2 382.04,-600.53"/>
<polygon fill="#d9534f" stroke="#d9534f" points="381.88,-604.03 391.9,-600.58 381.92,-597.03 381.88,-604.03"/>
<text xml:space="preserve" text-anchor="middle" x="276.62" y="-603.32" font-family="Times,serif" font-size="14.00">counterfactual</text>
</g>
<!-- denied_list_files_denied_4&#45;&gt;call_send_email_6_e3e20d -->
<g id="edge11" class="edge">
<title>denied_list_files_denied_4&#45;&gt;call_send_email_6_e3e20d</title>
<path fill="none" stroke="#d9534f" stroke-dasharray="1,5" d="M189.68,-581.69C244.38,-569.66 317.44,-553.58 374.63,-541"/>
<polygon fill="#d9534f" stroke="#d9534f" points="375.36,-544.42 384.37,-538.86 373.85,-537.59 375.36,-544.42"/>
<text xml:space="preserve" text-anchor="middle" x="276.62" y="-572.48" font-family="Times,serif" font-size="14.00">counterfactual</text>
</g>
<!-- denied_list_files_5_57c2b9_denied -->
<g id="node15" class="node">
<title>denied_list_files_5_57c2b9_denied</title>
<polygon fill="#d9534f" stroke="black" stroke-width="2" points="212.5,-779.75 7.5,-779.75 7.5,-722.25 212.5,-722.25 212.5,-779.75"/>
<text xml:space="preserve" text-anchor="middle" x="110" y="-762.45" font-family="Times,serif" font-size="14.00" fill="white">denied:list_files_5_57c2b9_denied</text>
<text xml:space="preserve" text-anchor="middle" x="110" y="-745.95" font-family="Times,serif" font-size="14.00" fill="white">list_files</text>
<text xml:space="preserve" text-anchor="middle" x="110" y="-729.45" font-family="Times,serif" font-size="14.00" fill="white">[TOOL_DESCRIPTION]</text>
</g>
<!-- denied_list_files_denied_5 -->
<g id="node16" class="node">
<title>denied_list_files_denied_5</title>
<polygon fill="#d9534f" stroke="black" stroke-width="2" points="189.25,-549.75 30.75,-549.75 30.75,-492.25 189.25,-492.25 189.25,-549.75"/>
<text xml:space="preserve" text-anchor="middle" x="110" y="-532.45" font-family="Times,serif" font-size="14.00" fill="white">denied:list_files_denied_5</text>
<text xml:space="preserve" text-anchor="middle" x="110" y="-515.95" font-family="Times,serif" font-size="14.00" fill="white">list_files</text>
<text xml:space="preserve" text-anchor="middle" x="110" y="-499.45" font-family="Times,serif" font-size="14.00" fill="white">[TOOL_DESCRIPTION]</text>
</g>
<!-- denied_list_files_denied_5&#45;&gt;call_send_email_6_e3e20d -->
<g id="edge9" class="edge">
<title>denied_list_files_denied_5&#45;&gt;call_send_email_6_e3e20d</title>
<path fill="none" stroke="#d9534f" stroke-dasharray="1,5" d="M189.68,-521C244.38,-521 317.44,-521 374.63,-521"/>
<polygon fill="#d9534f" stroke="#d9534f" points="374.34,-524.5 384.34,-521 374.34,-517.5 374.34,-524.5"/>
<text xml:space="preserve" text-anchor="middle" x="276.62" y="-524.2" font-family="Times,serif" font-size="14.00">counterfactual</text>
</g>
<!-- denied_send_email_6_e3e20d_denied -->
<g id="node18" class="node">
<title>denied_send_email_6_e3e20d_denied</title>
<polygon fill="#d9534f" stroke="black" stroke-width="2" points="220,-855.75 0,-855.75 0,-798.25 220,-798.25 220,-855.75"/>
<text xml:space="preserve" text-anchor="middle" x="110" y="-838.45" font-family="Times,serif" font-size="14.00" fill="white">denied:send_email_6_e3e20d_denied</text>
<text xml:space="preserve" text-anchor="middle" x="110" y="-821.95" font-family="Times,serif" font-size="14.00" fill="white">send_email</text>
<text xml:space="preserve" text-anchor="middle" x="110" y="-805.45" font-family="Times,serif" font-size="14.00" fill="white">[TOOL_DESCRIPTION]</text>
</g>
</g>
</svg>
