<?xml version="1.0" encoding="UTF-8" standalone="no"?>
<!DOCTYPE svg PUBLIC "-//W3C//DTD SVG 1.1//EN"
 "http://www.w3.org/Graphics/SVG/1.1/DTD/svg11.dtd">
<!-- Generated by graphviz version 14.1.4 (20260321.0153)
 -->
<!-- Title: provenance Pages: 1 -->
<svg width="606pt" height="678pt"
 viewBox="0.00 0.00 606.00 678.00" xmlns="http://www.w3.org/2000/svg" xmlns:xlink="http://www.w3.org/1999/xlink">
<g id="graph0" class="graph" transform="scale(1 1) rotate(0) translate(4 673.74)">
<title>provenance</title>
<polygon fill="white" stroke="none" points="-4,4 -4,-673.74 602.33,-673.74 602.33,4 -4,4"/>
<!-- call_list_files_1_10712c -->
<g id="node1" class="node">
<title>call_list_files_1_10712c</title>
<polygon fill="#50c878" stroke="black" points="182.12,-57.74 36.38,-57.74 36.38,-0.24 182.12,-0.24 182.12,-57.74"/>
<text xml:space="preserve" text-anchor="middle" x="109.25" y="-40.44" font-family="Times,serif" font-size="14.00" fill="white">call:list_files_1_10712c</text>
<text xml:space="preserve" text-anchor="middle" x="109.25" y="-23.94" font-family="Times,serif" font-size="14.00" fill="white">list_files</text>
<text xml:space="preserve" text-anchor="middle" x="109.25" y="-7.44" font-family="Times,serif" font-size="14.00" fill="white">[USER_INPUT]</text>
</g>
<!-- data_result_list_files_4b1476 -->
<g id="node2" class="node">
<title>data_result_list_files_4b1476</title>
<ellipse fill="#f5a623" stroke="black" cx="465.04" cy="-28.99" rx="133.29" ry="28.99"/>
<text xml:space="preserve" text-anchor="middle" x="465.04" y="-32.19" font-family="Times,serif" font-size="14.00" fill="white">data:result_list_files_4b1476</text>
<text xml:space="preserve" text-anchor="middle" x="465.04" y="-15.69" font-family="Times,serif" font-size="14.00" fill="white">[TOOL_OUTPUT_TRUSTED]</text>
</g>
<!-- call_list_files_1_10712c&#45;&gt;data_result_list_files_4b1476 -->
<g id="edge1" class="edge">
<title>call_list_files_1_10712c&#45;&gt;data_result_list_files_4b1476</title>
<path fill="none" stroke="#333333" d="M182.27,-28.99C221.92,-28.99 272.58,-28.99 319.98,-28.99"/>
<polygon fill="#333333" stroke="#333333" points="319.79,-32.49 329.79,-28.99 319.79,-25.49 319.79,-32.49"/>
<text xml:space="preserve" text-anchor="middle" x="275.12" y="-32.19" font-family="Times,serif" font-size="14.00">direct_output</text>
</g>
<!-- call_list_files_2_63ee6e -->
<g id="node3" class="node">
<title>call_list_files_2_63ee6e</title>
<polygon fill="#50c878" stroke="black" points="181.38,-133.74 37.12,-133.74 37.12,-76.24 181.38,-76.24 181.38,-133.74"/>
<text xml:space="preserve" text-anchor="middle" x="109.25" y="-116.44" font-family="Times,serif" font-size="14.00" fill="white">call:list_files_2_63ee6e</text>
<text xml:space="preserve" text-anchor="middle" x="109.25" y="-99.94" font-family="Times,serif" font-size="14.00" fill="white">list_files</text>
<text xml:space="preserve" text-anchor="middle" x="109.25" y="-83.44" font-family="Times,serif" font-size="14.00" fill="white">[USER_INPUT]</text>
</g>
<!-- data_result_list_files_922617 -->
<g id="node4" class="node">
<title>data_result_list_files_922617</title>
<ellipse fill="#f5a623" stroke="black" cx="465.04" cy="-104.99" rx="133.29" ry="28.99"/>
<text xml:space="preserve" text-anchor="middle" x="465.04" y="-108.19" font-family="Times,serif" font-size="14.00" fill="white">data:result_list_files_922617</text>
<text xml:space="preserve" text-anchor="middle" x="465.04" y="-91.69" font-family="Times,serif" font-size="14.00" fill="white">[TOOL_OUTPUT_TRUSTED]</text>
</g>
<!-- call_list_files_2_63ee6e&#45;&gt;data_result_list_files_922617 -->
<g id="edge2" class="edge">
<title>call_list_files_2_63ee6e&#45;&gt;data_result_list_files_922617</title>
<path fill="none" stroke="#333333" d="M181.84,-104.99C221.57,-104.99 272.43,-104.99 320,-104.99"/>
<polygon fill="#333333" stroke="#333333" points="319.86,-108.49 329.86,-104.99 319.86,-101.49 319.86,-108.49"/>
<text xml:space="preserve" text-anchor="middle" x="275.12" y="-108.19" font-family="Times,serif" font-size="14.00">direct_output</text>
</g>
<!-- call_list_files_3_c82c38 -->
<g id="node5" class="node">
<title>call_list_files_3_c82c38</title>
<polygon fill="#50c878" stroke="black" points="181.75,-209.74 36.75,-209.74 36.75,-152.24 181.75,-152.24 181.75,-209.74"/>
<text xml:space="preserve" text-anchor="middle" x="109.25" y="-192.44" font-family="Times,serif" font-size="14.00" fill="white">call:list_files_3_c82c38</text>
<text xml:space="preserve" text-anchor="middle" x="109.25" y="-175.94" font-family="Times,serif" font-size="14.00" fill="white">list_files</text>
<text xml:space="preserve" text-anchor="middle" x="109.25" y="-159.44" font-family="Times,serif" font-size="14.00" fill="white">[USER_INPUT]</text>
</g>
<!-- denied_list_files_denied_3 -->
<g id="node6" class="node">
<title>denied_list_files_denied_3</title>
<polygon fill="#d9534f" stroke="black" stroke-width="2" points="188.5,-285.74 30,-285.74 30,-228.24 188.5,-228.24 188.5,-285.74"/>
<text xml:space="preserve" text-anchor="middle" x="109.25" y="-268.44" font-family="Times,serif" font-size="14.00" fill="white">denied:list_files_denied_3</text>
<text xml:space="preserve" text-anchor="middle" x="109.25" y="-251.94" font-family="Times,serif" font-size="14.00" fill="white">list_files</text>
<text xml:space="preserve" text-anchor="middle" x="109.25" y="-235.44" font-family="Times,serif" font-size="14.00" fill="white">[TOOL_DESCRIPTION]</text>
</g>
<!-- call_list_files_4_591a02 -->
<g id="node7" class="node">
<title>call_list_files_4_591a02</title>
<polygon fill="#50c878" stroke="black" points="537.91,-283.74 392.16,-283.74 392.16,-226.24 537.91,-226.24 537.91,-283.74"/>
<text xml:space="preserve" text-anchor="middle" x="465.04" y="-266.44" font-family="Times,serif" font-size="14.00" fill="white">call:list_files_4_591a02</text>
<text xml:space="preserve" text-anchor="middle" x="465.04" y="-249.94" font-family="Times,serif" font-size="14.00" fill="white">list_files</text>
<text xml:space="preserve" text-anchor="middle" x="465.04" y="-233.44" font-family="Times,serif" font-size="14.00" fill="white">[USER_INPUT]</text>
</g>
<!-- denied_list_files_denied_3&#45;&gt;call_list_files_4_591a02 -->
<g id="edge3" class="edge">
<title>denied_list_files_denied_3&#45;&gt;call_list_files_4_591a02</title>
<path fill="none" stroke="#d9534f" stroke-dasharray="1,5" d="M188.77,-256.55C245.64,-256.23 322.41,-255.79 380.42,-255.46"/>
<polygon fill="#d9534f" stroke="#d9534f" points="380.27,-258.97 390.25,-255.41 380.23,-251.97 380.27,-258.97"/>
<text xml:space="preserve" text-anchor="middle" x="275.12" y="-259.43" font-family="Times,serif" font-size="14.00">counterfactual</text>
</g>
<!-- call_send_email_6_e4733f -->
<g id="node13" class="node">
<title>call_send_email_6_e4733f</title>
<polygon fill="#50c878" stroke="black" points="544.66,-363.74 385.41,-363.74 385.41,-306.24 544.66,-306.24 544.66,-363.74"/>
<text xml:space="preserve" text-anchor="middle" x="465.04" y="-346.44" font-family="Times,serif" font-size="14.00" fill="white">call:send_email_6_e4733f</text>
<text xml:space="preserve" text-anchor="middle" x="465.04" y="-329.94" font-family="Times,serif" font-size="14.00" fill="white">send_email</text>
<text xml:space="preserve" text-anchor="middle" x="465.04" y="-313.44" font-family="Times,serif" font-size="14.00" fill="white">[USER_INPUT]</text>
</g>
<!-- denied_list_files_denied_3&#45;&gt;call_send_email_6_e4733f -->
<g id="edge6" class="edge">
<title>denied_list_files_denied_3&#45;&gt;call_send_email_6_e4733f</title>
<path fill="none" stroke="#d9534f" stroke-dasharray="1,5" d="M188.77,-274.3C243.54,-286.38 316.77,-302.52 373.92,-315.12"/>
<polygon fill="#d9534f" stroke="#d9534f" points="373.13,-318.53 383.65,-317.27 374.64,-311.7 373.13,-318.53"/>
<text xml:space="preserve" text-anchor="middle" x="275.12" y="-303.86" font-family="Times,serif" font-size="14.00">counterfactual</text>
</g>
<!-- denied_list_files_4_591a02_denied -->
<g id="node8" class="node">
<title>denied_list_files_4_591a02_denied</title>
<polygon fill="#d9534f" stroke="black" stroke-width="2" points="211.75,-517.74 6.75,-517.74 6.75,-460.24 211.75,-460.24 211.75,-517.74"/>
<text xml:space="preserve" text-anchor="middle" x="109.25" y="-500.44" font-family="Times,serif" font-size="14.00" fill="white">denied:list_files_4_591a02_denied</text>
<text xml:space="preserve" text-anchor="middle" x="109.25" y="-483.94" font-family="Times,serif" font-size="14.00" fill="white">list_files</text>
<text xml:space="preserve" text-anchor="middle" x="109.25" y="-467.44" font-family="Times,serif" font-size="14.00" fill="white">[TOOL_DESCRIPTION]</text>
</g>
<!-- denied_list_files_denied_4 -->
<g id="node9" class="node">
<title>denied_list_files_denied_4</title>
<polygon fill="#d9534f" stroke="black" stroke-width="2" points="188.5,-441.74 30,-441.74 30,-384.24 188.5,-384.24 188.5,-441.74"/>
<text xml:space="preserve" text-anchor="middle" x="109.25" y="-424.44" font-family="Times,serif" font-size="14.00" fill="white">denied:list_files_denied_4</text>
<text xml:space="preserve" text-anchor="middle" x="109.25" y="-407.94" font-family="Times,serif" font-size="14.00" fill="white">list_files</text>
<text xml:space="preserve" text-anchor="middle" x="109.25" y="-391.44" font-family="Times,serif" font-size="14.00" fill="white">[TOOL_DESCRIPTION]</text>
</g>
<!-- call_list_files_5_9f58b0 -->
<g id="node10" class="node">
<title>call_list_files_5_9f58b0</title>
<polygon fill="#50c878" stroke="black" points="537.16,-443.74 392.91,-443.74 392.91,-386.24 537.16,-386.24 537.16,-443.74"/>
<text xml:space="preserve" text-anchor="middle" x="465.04" y="-426.44" font-family="Times,serif" font-size="14.00" fill="white">call:list_files_5_9f58b0</text>
<text xml:space="preserve" text-anchor="middle" x="465.04" y="-409.94" font-family="Times,serif" font-size="14.00" fill="white">list_files</text>
<text xml:space="preserve" text-anchor="middle" x="465.04" y="-393.44" font-family="Times,serif" font-size="14.00" fill="white">[USER_INPUT]</text>
</g>
<!-- denied_list_files_denied_4&#45;&gt;call_list_files_5_9f58b0 -->
<g id="edge4" class="edge">
<title>denied_list_files_denied_4&#45;&gt;call_list_files_5_9f58b0</title>
<path fill="none" stroke="#d9534f" stroke-dasharray="1,5" d="M188.77,-413.44C245.93,-413.76 323.18,-414.2 381.3,-414.52"/>
<polygon fill="#d9534f" stroke="#d9534f" points="381.12,-418.02 391.14,-414.58 381.16,-411.02 381.12,-418.02"/>
<text xml:space="preserve" text-anchor="middle" x="275.12" y="-417.31" font-family="Times,serif" font-size="14.00">counterfactual</text>
</g>
<!-- denied_list_files_denied_4&#45;&gt;call_send_email_6_e4733f -->
<g id="edge7" class="edge">
<title>denied_list_files_denied_4&#45;&gt;call_send_email_6_e4733f</title>
<path fill="none" stroke="#d9534f" stroke-dasharray="1,5" d="M188.77,-395.68C243.54,-383.6 316.77,-367.46 373.92,-354.86"/>
<polygon fill="#d9534f" stroke="#d9534f" points="374.64,-358.29 383.65,-352.71 373.13,-351.45 374.64,-358.29"/>
<text xml:space="preserve" text-anchor="middle" x="275.12" y="-386.47" font-family="Times,serif" font-size="14.00">counterfactual</text>
</g>
<!-- denied_list_files_5_9f58b0_denied -->
<g id="node11" class="node">
<title>denied_list_files_5_9f58b0_denied</title>
<polygon fill="#d9534f" stroke="black" stroke-width="2" points="211,-593.74 7.5,-593.74 7.5,-536.24 211,-536.24 211,-593.74"/>
<text xml:space="preserve" text-anchor="middle" x="109.25" y="-576.44" font-family="Times,serif" font-size="14.00" fill="white">denied:list_files_5_9f58b0_denied</text>
<text xml:space="preserve" text-anchor="middle" x="109.25" y="-559.94" font-family="Times,serif" font-size="14.00" fill="white">list_files</text>
<text xml:space="preserve" text-anchor="middle" x="109.25" y="-543.44" font-family="Times,serif" font-size="14.00" fill="white">[TOOL_DESCRIPTION]</text>
</g>
<!-- denied_list_files_denied_5 -->
<g id="node12" class="node">
<title>denied_list_files_denied_5</title>
<polygon fill="#d9534f" stroke="black" stroke-width="2" points="188.5,-363.74 30,-363.74 30,-306.24 188.5,-306.24 188.5,-363.74"/>
<text xml:space="preserve" text-anchor="middle" x="109.25" y="-346.44" font-family="Times,serif" font-size="14.00" fill="white">denied:list_files_denied_5</text>
<text xml:space="preserve" text-anchor="middle" x="109.25" y="-329.94" font-family="Times,serif" font-size="14.00" fill="white">list_files</text>
<text xml:space="preserve" text-anchor="middle" x="109.25" y="-313.44" font-family="Times,serif" font-size="14.00" fill="white">[TOOL_DESCRIPTION]</text>
</g>
<!-- denied_list_files_denied_5&#45;&gt;call_send_email_6_e4733f -->
<g id="edge5" class="edge">
<title>denied_list_files_denied_5&#45;&gt;call_send_email_6_e4733f</title>
<path fill="none" stroke="#d9534f" stroke-dasharray="1,5" d="M188.77,-334.99C243.54,-334.99 316.77,-334.99 373.92,-334.99"/>
<polygon fill="#d9534f" stroke="#d9534f" points="373.62,-338.49 383.62,-334.99 373.62,-331.49 373.62,-338.49"/>
<text xml:space="preserve" text-anchor="middle" x="275.12" y="-338.19" font-family="Times,serif" font-size="14.00">counterfactual</text>
</g>
<!-- denied_send_email_6_e4733f_denied -->
<g id="node14" class="node">
<title>denied_send_email_6_e4733f_denied</title>
<polygon fill="#d9534f" stroke="black" stroke-width="2" points="218.5,-669.74 0,-669.74 0,-612.24 218.5,-612.24 218.5,-669.74"/>
<text xml:space="preserve" text-anchor="middle" x="109.25" y="-652.44" font-family="Times,serif" font-size="14.00" fill="white">denied:send_email_6_e4733f_denied</text>
<text xml:space="preserve" text-anchor="middle" x="109.25" y="-635.94" font-family="Times,serif" font-size="14.00" fill="white">send_email</text>
<text xml:space="preserve" text-anchor="middle" x="109.25" y="-619.44" font-family="Times,serif" font-size="14.00" fill="white">[TOOL_DESCRIPTION]</text>
</g>
</g>
</svg>
